<?xml version="1.0" encoding="utf-8"?>
<!-- Svg Vector Icons : http://www.onlinewebfonts.com/icon -->
<!DOCTYPE svg PUBLIC "-//W3C//DTD SVG 1.1//EN" "http://www.w3.org/Graphics/SVG/1.1/DTD/svg11.dtd">
<svg version="1.1" xmlns="http://www.w3.org/2000/svg" xmlns:xlink="http://www.w3.org/1999/xlink" x="0px" y="0px" viewBox="0 0 1000 1000" enable-background="new 0 0 1000 1000" xml:space="preserve">
<metadata> Svg Vector Icons : http://www.onlinewebfonts.com/icon </metadata>
<g><path d="M156.9,904.1c0-114.3,0-228.6,0-334.7c0-8.2,0-8.2,8.2-16.3c106.1-89.8,220.3-187.8,334.6-285.8l0,0c0,0,8.2,0,8.2,8.2c106.1,89.8,220.3,187.8,326.4,285.8c8.2,8.2,8.2,8.2,8.2,16.3c0,106.1,0,220.4,0,326.6h-204c0-49,0-106.1,0-155.1c0-81.6-65.3-147-146.9-138.8c-73.4,0-130.6,57.2-130.6,130.6c0,57.2,0,106.1,0,163.3C287.5,904.1,222.2,904.1,156.9,904.1L156.9,904.1z M10,536.7c8.2-16.3,16.3-24.5,24.5-32.7c155.1-138.8,301.9-269.4,457-400.1l8.2-8.2c65.3,57.2,130.6,114.3,195.8,171.5c0-8.2,0-8.2,0-16.3c0-8.2,8.2-8.2,16.3-16.3c8.2,0,16.3-8.2,32.6-8.2c24.5,0,49,0,73.4,8.2c24.5,0,24.5,8.2,24.5,24.5c0,40.8,0,89.8,0,130.6c0,0,0,8.2,8.2,8.2c40.8,40.8,81.6,73.5,122.4,114.3c16.3,16.3,24.5,40.8,8.2,65.3c-16.3,16.3-49,16.3-65.3,0c-57.1-49-114.2-98-171.4-155.1c-81.6-65.3-163.2-130.6-236.7-204.1h-8.2h-8.2C360.9,340.8,230.3,455.1,99.8,569.4c-8.2,0-8.2,8.2-16.3,8.2c-24.5,24.5-57.1,16.3-65.3-16.3c-8.2,0-8.2-8.2-8.2-8.2L10,536.7L10,536.7z"/></g>
</svg>